<svg width="15" height="17" viewBox="0 0 15 17" fill="none" xmlns="http://www.w3.org/2000/svg">
<symbol  viewBox="0 0 15 17" id="delete">
<path d="M11.5 17H3.5C3.10218 17 2.72064 16.8213 2.43934 16.5032C2.15804 16.185 2 15.7536 2 15.3037V5.56545C2 5.41548 2.05268 5.27166 2.14645 5.16562C2.24021 5.05957 2.36739 5 2.5 5C2.63261 5 2.75979 5.05957 2.85355 5.16562C2.94732 5.27166 3 5.41548 3 5.56545V15.3037C3 15.4536 3.05268 15.5975 3.14645 15.7035C3.24021 15.8095 3.36739 15.8691 3.5 15.8691H11.5C11.6326 15.8691 11.7598 15.8095 11.8536 15.7035C11.9473 15.5975 12 15.4536 12 15.3037V5.56545C12 5.41548 12.0527 5.27166 12.1464 5.16562C12.2402 5.05957 12.3674 5 12.5 5C12.6326 5 12.7598 5.05957 12.8536 5.16562C12.9473 5.27166 13 5.41548 13 5.56545V15.3037C13 15.7536 12.842 16.185 12.5607 16.5032C12.2794 16.8213 11.8978 17 11.5 17Z"/>
<path d="M13.75 3.9375H1.25C1.10082 3.9375 0.957742 3.87824 0.852252 3.77275C0.746763 3.66726 0.6875 3.52418 0.6875 3.375C0.6875 3.22582 0.746763 3.08274 0.852252 2.97725C0.957742 2.87176 1.10082 2.8125 1.25 2.8125H13.75C13.8992 2.8125 14.0423 2.87176 14.1477 2.97725C14.2532 3.08274 14.3125 3.22582 14.3125 3.375C14.3125 3.52418 14.2532 3.66726 14.1477 3.77275C14.0423 3.87824 13.8992 3.9375 13.75 3.9375Z"/>
<path d="M9.7525 3.9375C9.60332 3.9375 9.46024 3.87824 9.35475 3.77275C9.24927 3.66726 9.19 3.52418 9.19 3.375V1.6875H5.815V3.375C5.815 3.52418 5.75574 3.66726 5.65025 3.77275C5.54476 3.87824 5.40169 3.9375 5.2525 3.9375C5.10332 3.9375 4.96024 3.87824 4.85475 3.77275C4.74927 3.66726 4.69 3.52418 4.69 3.375V1.125C4.69 0.975816 4.74927 0.832742 4.85475 0.727252C4.96024 0.621763 5.10332 0.5625 5.2525 0.5625H9.7525C9.90169 0.5625 10.0448 0.621763 10.1503 0.727252C10.2557 0.832742 10.315 0.975816 10.315 1.125V3.375C10.315 3.52418 10.2557 3.66726 10.1503 3.77275C10.0448 3.87824 9.90169 3.9375 9.7525 3.9375Z"/>
<path d="M10 13.75C9.86739 13.75 9.74021 13.6973 9.64645 13.6036C9.55268 13.5098 9.5 13.3826 9.5 13.25V8.25C9.5 8.11739 9.55268 7.99021 9.64645 7.89645C9.74021 7.80268 9.86739 7.75 10 7.75C10.1326 7.75 10.2598 7.80268 10.3536 7.89645C10.4473 7.99021 10.5 8.11739 10.5 8.25V13.25C10.5 13.3826 10.4473 13.5098 10.3536 13.6036C10.2598 13.6973 10.1326 13.75 10 13.75Z"/>
<path d="M7.5 13.75C7.36739 13.75 7.24021 13.6973 7.14645 13.6036C7.05268 13.5098 7 13.3826 7 13.25V8.25C7 8.11739 7.05268 7.99021 7.14645 7.89645C7.24021 7.80268 7.36739 7.75 7.5 7.75C7.63261 7.75 7.75979 7.80268 7.85355 7.89645C7.94732 7.99021 8 8.11739 8 8.25V13.25C8 13.3826 7.94732 13.5098 7.85355 13.6036C7.75979 13.6973 7.63261 13.75 7.5 13.75Z"/>
<path d="M5 13.75C4.86739 13.75 4.74021 13.6973 4.64645 13.6036C4.55268 13.5098 4.5 13.3826 4.5 13.25V8.25C4.5 8.11739 4.55268 7.99021 4.64645 7.89645C4.74021 7.80268 4.86739 7.75 5 7.75C5.13261 7.75 5.25979 7.80268 5.35355 7.89645C5.44732 7.99021 5.5 8.11739 5.5 8.25V13.25C5.5 13.3826 5.44732 13.5098 5.35355 13.6036C5.25979 13.6973 5.13261 13.75 5 13.75Z"/>
</symbol>
</svg>
