<svg width="24" height="24" viewBox="0 0 24 24" fill="none" xmlns="http://www.w3.org/2000/svg">
<path d="M8.24093 0.658807C5.25904 1.66003 2.71586 3.85064 1.30375 6.61241C0.810193 7.5666 0.453737 8.58126 0.241235 9.62953C-0.300304 12.2367 0.0767163 15.012 1.30375 17.3907C2.09892 18.943 3.24369 20.3205 4.62838 21.3956C5.93767 22.417 7.45947 23.1696 9.07723 23.5929C11.1131 24.1305 13.2862 24.1171 15.3426 23.6601C17.2003 23.2435 18.9552 22.37 20.3536 21.1067C21.8342 19.7695 22.8899 18.0156 23.452 16.1274C24.0621 14.0645 24.1443 11.8672 23.7605 9.7572C19.9217 9.7572 16.083 9.7572 12.2373 9.7572C12.2373 11.3162 12.2373 12.8818 12.2373 14.4408C14.4583 14.4408 16.6862 14.4408 18.9072 14.4408C18.6467 15.9393 17.7419 17.3034 16.4531 18.15C15.6442 18.6809 14.7188 19.0303 13.7591 19.1916C12.7926 19.3528 11.7986 19.373 10.8389 19.1849C9.85869 18.9967 8.92642 18.5935 8.11069 18.0291C6.80825 17.1354 5.81429 15.8183 5.30702 14.3467C4.78605 12.8482 4.77919 11.175 5.30702 9.67657C5.67033 8.62158 6.28042 7.64051 7.08245 6.8476C8.06956 5.85309 9.35143 5.14753 10.7361 4.85858C11.922 4.60996 13.1696 4.65699 14.3281 4.9997C15.3152 5.29536 16.2201 5.81949 16.9672 6.51833C17.7213 5.78589 18.4685 5.04673 19.2225 4.31429C19.6132 3.91783 20.0314 3.54153 20.4153 3.13163C19.2774 2.09681 17.9338 1.26357 16.4737 0.739443C13.8551 -0.221466 10.8869 -0.241625 8.24093 0.658807Z" fill="white"/>
<path d="M8.24133 0.658972C10.8873 -0.24146 13.8555 -0.221301 16.4878 0.732889C17.9479 1.25702 19.2846 2.09026 20.4294 3.12508C20.0455 3.52826 19.6342 3.91128 19.2366 4.30774C18.4826 5.04018 17.7354 5.77934 16.9814 6.51178C16.2342 5.81294 15.3293 5.28209 14.3422 4.99314C13.1837 4.65044 11.9361 4.6034 10.7502 4.85203C9.36554 5.14097 8.08367 5.85325 7.09656 6.84104C6.29453 7.63396 5.68444 8.61503 5.32113 9.67001C3.98442 8.65535 2.64771 7.63396 1.311 6.61929C2.71626 3.8508 5.25944 1.6602 8.24133 0.658972Z" fill="#E94435"/>
<path d="M0.241234 9.62968C0.453737 8.58141 0.817048 7.56675 1.30375 6.61256C2.64046 7.62722 3.97717 8.64861 5.31388 9.66327C4.78605 11.1618 4.7929 12.8349 5.31388 14.3334C3.97717 15.3481 2.64046 16.3695 1.30375 17.3841C0.0767163 15.0188 -0.300304 12.2369 0.241234 9.62968Z" fill="#F8BB15"/>
<path d="M12.2434 9.75049C16.0822 9.75049 19.921 9.75049 23.7666 9.75049C24.1504 11.8605 24.0682 14.0578 23.4581 16.1207C22.896 18.0089 21.8403 19.7695 20.3597 21.1C19.0641 20.1122 17.7616 19.1244 16.4729 18.1366C17.7616 17.2966 18.6665 15.9258 18.927 14.4274C16.706 14.4274 14.4781 14.4274 12.2571 14.4274C12.2366 12.8751 12.2434 11.3162 12.2434 9.75049Z" fill="#547DBE"/>
<path d="M1.30402 17.3909C2.64073 16.3763 3.97743 15.3549 5.31414 14.3402C5.82141 15.8185 6.81537 17.1289 8.11781 18.0226C8.93354 18.587 9.86581 18.9835 10.8461 19.1784C11.8058 19.3665 12.8066 19.3463 13.7663 19.1851C14.7259 19.0238 15.6514 18.6744 16.4602 18.1435C17.7558 19.1313 19.0583 20.1191 20.347 21.1069C18.9486 22.3769 17.1937 23.2437 15.336 23.6604C13.2864 24.1173 11.1134 24.1307 9.07064 23.5932C7.45288 23.1698 5.93109 22.4172 4.6218 21.3958C3.24396 20.314 2.09919 18.9364 1.30402 17.3909Z" fill="#34A751"/>
</svg>
