<svg width="18" height="18" viewBox="0 0 18 18" fill="none" xmlns="http://www.w3.org/2000/svg">
<symbol viewBox="0 0 18 18"  id="Hflip">
<path d="M14.625 13.1462V4.85381C14.625 4.59619 14.3072 4.47412 14.1345 4.66594L10.4029 8.81212C10.3067 8.919 10.3067 9.08156 10.4029 9.18844L14.1345 13.3346C14.3072 13.5264 14.625 13.4044 14.625 13.1462Z"/>
<path d="M4.44375 6.90582L6.32869 9L4.44375 11.0942V6.90582ZM3.6585 4.57144C3.5145 4.57144 3.375 4.68282 3.375 4.85382V13.1468C3.375 13.3172 3.5145 13.4286 3.6585 13.4286C3.73219 13.4286 3.807 13.3993 3.8655 13.3346L7.59712 9.18844C7.69331 9.08157 7.69331 8.919 7.59712 8.81213L3.8655 4.66538C3.807 4.60069 3.73219 4.57144 3.6585 4.57144Z"/>
<path d="M9.5 2.8125C9.5 2.53636 9.27614 2.3125 9 2.3125C8.72386 2.3125 8.5 2.53636 8.5 2.8125H9.5ZM9.5 15.1875V2.8125H8.5V15.1875H9.5Z"/>
</symbol>
</svg>
