<svg width="24" height="24" viewBox="0 0 24 24" fill="none" xmlns="http://www.w3.org/2000/svg">
<g clip-path="url(#clip0_40_535)">
<path d="M12 24C18.6274 24 24 18.6274 24 12C24 5.37258 18.6274 0 12 0C5.37258 0 0 5.37258 0 12C0 18.6274 5.37258 24 12 24Z" fill="url(#paint0_radial_40_535)"/>
<path d="M15.2597 4.29149C17.564 4.31354 19.6853 6.29163 19.7084 8.74029C19.7162 10.9134 19.7162 13.0866 19.7084 15.2597C19.6865 17.5551 17.7084 19.6853 15.2597 19.7085C13.0866 19.7162 10.9134 19.7162 8.74027 19.7085C6.43488 19.6865 4.31462 17.7084 4.29148 15.2597C4.28378 13.0866 4.28378 10.9134 4.29148 8.74029C4.31243 6.43378 6.2861 4.31463 8.74027 4.29149C10.9134 4.28379 13.0866 4.28379 15.2597 4.29149ZM8.77002 5.33289C6.98147 5.33841 5.35051 6.88893 5.33287 8.74689C5.32627 10.9156 5.32627 13.0844 5.33287 15.2531C5.34942 17.0218 6.86246 18.6495 8.74687 18.667C10.9156 18.6737 13.0844 18.6737 15.2531 18.667C17.0262 18.6506 18.6495 17.1375 18.667 15.2531C18.6737 13.0844 18.6737 10.9156 18.667 8.74689C18.6506 6.96605 17.1078 5.35053 15.2531 5.33289C13.0921 5.32629 10.931 5.33289 8.77002 5.33289Z" fill="white" stroke="white" stroke-width="0.5"/>
<path d="M12.0213 8.91434C13.447 8.92755 14.7758 10.0279 15.0366 11.4377C15.2225 12.4428 14.8719 13.5326 14.1317 14.2397C13.3078 15.0244 12.0328 15.3047 10.9401 14.9044C9.71885 14.4574 8.85973 13.1693 8.91701 11.8644C8.98661 10.3056 10.363 8.91962 12.0002 8.91434C12.0072 8.91434 12.0143 8.91434 12.0213 8.91434ZM11.9861 9.74928C10.9683 9.75898 10.0088 10.5313 9.79728 11.5347C9.58316 12.5495 10.1665 13.6754 11.1243 14.0801C12.1702 14.5227 13.521 14.0263 14.0259 12.993C14.5485 11.9253 14.0559 10.4749 12.9527 9.95913C12.6522 9.81893 12.3183 9.74841 11.9861 9.74928Z" fill="white" stroke="white" stroke-width="0.5"/>
<path fill-rule="evenodd" clip-rule="evenodd" d="M16.6286 8.11915C16.6286 7.92063 16.5494 7.73035 16.4095 7.59046C16.2696 7.45058 16.0793 7.37138 15.8808 7.37138C15.8654 7.37138 15.8489 7.37138 15.8335 7.37138C15.635 7.37138 15.4447 7.45058 15.3048 7.59046C15.1649 7.73035 15.0857 7.92063 15.0857 8.11915C15.0857 8.12738 15.0857 8.13458 15.0857 8.14281C15.0857 8.34749 15.167 8.54395 15.312 8.68795C15.456 8.83298 15.6524 8.91423 15.8571 8.91423C16.283 8.91423 16.6286 8.56863 16.6286 8.14281C16.6286 8.13458 16.6286 8.12738 16.6286 8.11915Z" fill="white" stroke="white" stroke-width="0.5"/>
</g>
<defs>
<radialGradient id="paint0_radial_40_535" cx="0" cy="0" r="1" gradientUnits="userSpaceOnUse" gradientTransform="translate(0 23.4) scale(33.5196)">
<stop stop-color="#FF8100"/>
<stop offset="0.19" stop-color="#FF7209"/>
<stop offset="0.32" stop-color="#F55E16"/>
<stop offset="0.48" stop-color="#D92938"/>
<stop offset="1" stop-color="#9100FF"/>
</radialGradient>
<clipPath id="clip0_40_535">
<rect width="24" height="24" fill="white"/>
</clipPath>
</defs>
</svg>
