<svg width="18" height="19" viewBox="0 0 18 19" fill="none" xmlns="http://www.w3.org/2000/svg">
<path d="M16.6657 0.549862C17.0257 0.644598 17.2774 0.794182 17.5292 1.06094C17.7281 1.27285 17.859 1.50222 17.9421 1.78393L18 1.98338V9.52493C18 16.8371 17.9975 17.0715 17.9522 17.2161C17.7684 17.7994 17.358 18.2233 16.779 18.4302L16.6153 18.4875L12.4159 18.495L8.21906 18.5V17.8144V17.1288H12.4109H16.6027L16.5977 9.50499L16.5901 1.88366L12.4033 1.87618L8.21906 1.87119V1.18559V0.5L12.353 0.502493C16.3056 0.502493 16.497 0.504986 16.6657 0.549862Z" fill="#A4A6B3"/>
<path d="M5.25681 5.29169L5.7402 5.77286L4.212 7.28615L2.68129 8.80194H8.26537H13.8469V9.5V10.1981H8.26537H2.68129L4.212 11.7139L5.7402 13.2271L5.24171 13.7208L4.74574 14.2119L2.37162 11.8609L2.76566e-05 9.51247L2.37414 7.1615C3.67827 5.87009 4.75077 4.81302 4.75832 4.81302C4.76588 4.81302 4.98995 5.02992 5.25681 5.29169Z" fill="#A4A6B3"/>
</svg>
