<svg width="156" height="34" viewBox="0 0 156 34" fill="none" xmlns="http://www.w3.org/2000/svg">
<circle cx="16" cy="17" r="16" fill="white"/>
<path d="M14.3623 23.8888C14.3623 24.1372 14.225 24.365 14.0055 24.4812C12.5147 25.27 10.7202 24.1892 10.7202 22.5027V10.3248L12.6165 8.57724C13.2832 7.96277 14.3623 8.43572 14.3623 9.34246V23.8888Z" fill="#1A43FF"/>
<path d="M12.628 3.24032C13.5859 3.24032 14.3623 4.01681 14.3623 4.97465C14.3623 5.9325 13.5859 6.70898 12.628 6.70898C11.6702 6.70898 10.8937 5.9325 10.8937 4.97465C10.8937 4.01681 11.6702 3.24032 12.628 3.24032Z" fill="#1A43FF"/>
<path d="M10.7267 16.5942L21.6067 20.6615C22.426 21.0021 22.864 21.8991 22.6288 22.7547C22.3433 23.7927 21.2015 24.334 20.2172 23.8978L13.5426 21.348C12.5236 20.9588 11.5143 20.3771 11.052 19.3891C10.6459 18.5213 10.7267 17.798 10.7267 16.5942Z" fill="#5691FF"/>
<path d="M10.7267 22.6646L21.6067 26.7319C22.426 27.0725 22.864 27.9695 22.6288 28.8251C22.3433 29.8631 21.2015 30.4044 20.2172 29.9682L13.5426 27.4184C12.5236 27.0292 11.5143 26.4475 11.052 25.4596C10.6459 24.5917 10.7267 23.8684 10.7267 22.6646Z" fill="#5691FF"/>
<path d="M10.7266 10.3511L21.6066 14.4183C22.4259 14.7589 22.8638 15.6559 22.6287 16.5115C22.3432 17.5495 21.2013 18.0908 20.217 17.6546L12.4797 14.5104C11.447 14.0907 10.7657 13.0939 10.7498 11.9792L10.7266 10.3511Z" fill="#5691FF"/>
<path d="M45.504 11.8H47.584V23H45.504V11.8ZM61.6054 14.36C62.6827 14.36 63.536 14.6747 64.1654 15.304C64.7947 15.9227 65.1094 16.856 65.1094 18.104V23H63.1094V18.36C63.1094 17.6133 62.944 17.0533 62.6134 16.68C62.2827 16.296 61.808 16.104 61.1894 16.104C60.5174 16.104 59.9787 16.328 59.5734 16.776C59.168 17.2133 58.9654 17.8427 58.9654 18.664V23H56.9654V18.36C56.9654 17.6133 56.8 17.0533 56.4694 16.68C56.1387 16.296 55.664 16.104 55.0454 16.104C54.3627 16.104 53.8187 16.3227 53.4134 16.76C53.0187 17.1973 52.8214 17.832 52.8214 18.664V23H50.8214V14.456H52.7254V15.544C53.0454 15.16 53.4454 14.8667 53.9254 14.664C54.4054 14.4613 54.9387 14.36 55.5254 14.36C56.1654 14.36 56.7307 14.4827 57.2214 14.728C57.7227 14.9627 58.1174 15.3147 58.4054 15.784C58.7574 15.336 59.2107 14.9893 59.7654 14.744C60.32 14.488 60.9334 14.36 61.6054 14.36ZM71.3291 14.36C72.5878 14.36 73.5478 14.664 74.2091 15.272C74.8811 15.8693 75.2171 16.776 75.2171 17.992V23H73.3291V21.96C73.0838 22.3333 72.7318 22.6213 72.2731 22.824C71.8251 23.016 71.2811 23.112 70.6411 23.112C70.0011 23.112 69.4411 23.0053 68.9611 22.792C68.4811 22.568 68.1078 22.264 67.8411 21.88C67.5851 21.4853 67.4571 21.0427 67.4571 20.552C67.4571 19.784 67.7398 19.1707 68.3051 18.712C68.8811 18.2427 69.7825 18.008 71.0091 18.008H73.2171V17.88C73.2171 17.2827 73.0358 16.824 72.6731 16.504C72.3211 16.184 71.7931 16.024 71.0891 16.024C70.6091 16.024 70.1345 16.0987 69.6651 16.248C69.2065 16.3973 68.8171 16.6053 68.4971 16.872L67.7131 15.416C68.1611 15.0747 68.6998 14.8133 69.3291 14.632C69.9585 14.4507 70.6251 14.36 71.3291 14.36ZM71.0571 21.656C71.5585 21.656 72.0011 21.544 72.3851 21.32C72.7798 21.0853 73.0571 20.7547 73.2171 20.328V19.336H71.1531C70.0011 19.336 69.4251 19.7147 69.4251 20.472C69.4251 20.8347 69.5691 21.1227 69.8571 21.336C70.1451 21.5493 70.5451 21.656 71.0571 21.656ZM86.742 14.456V21.704C86.742 24.712 85.206 26.216 82.134 26.216C81.3127 26.216 80.534 26.1093 79.798 25.896C79.062 25.6933 78.454 25.3947 77.974 25L78.87 23.496C79.2433 23.8053 79.7127 24.0507 80.278 24.232C80.854 24.424 81.4353 24.52 82.022 24.52C82.9607 24.52 83.6487 24.3067 84.086 23.88C84.5233 23.4533 84.742 22.8027 84.742 21.928V21.48C84.4007 21.8533 83.9847 22.136 83.494 22.328C83.0033 22.52 82.4647 22.616 81.878 22.616C81.0673 22.616 80.3313 22.4453 79.67 22.104C79.0193 21.752 78.502 21.2613 78.118 20.632C77.7447 20.0027 77.558 19.2827 77.558 18.472C77.558 17.6613 77.7447 16.9467 78.118 16.328C78.502 15.6987 79.0193 15.2133 79.67 14.872C80.3313 14.5307 81.0673 14.36 81.878 14.36C82.4967 14.36 83.0567 14.4613 83.558 14.664C84.07 14.8667 84.4967 15.176 84.838 15.592V14.456H86.742ZM82.182 20.92C82.9393 20.92 83.558 20.696 84.038 20.248C84.5287 19.7893 84.774 19.1973 84.774 18.472C84.774 17.7573 84.5287 17.176 84.038 16.728C83.558 16.28 82.9393 16.056 82.182 16.056C81.414 16.056 80.7847 16.28 80.294 16.728C79.814 17.176 79.574 17.7573 79.574 18.472C79.574 19.1973 79.814 19.7893 80.294 20.248C80.7847 20.696 81.414 20.92 82.182 20.92ZM97.8034 18.776C97.8034 18.9147 97.7927 19.112 97.7714 19.368H91.0674C91.1847 19.9973 91.4887 20.4987 91.9794 20.872C92.4807 21.2347 93.0994 21.416 93.8354 21.416C94.774 21.416 95.5474 21.1067 96.1554 20.488L97.2274 21.72C96.8434 22.1787 96.358 22.5253 95.7714 22.76C95.1847 22.9947 94.5234 23.112 93.7874 23.112C92.8487 23.112 92.022 22.9253 91.3074 22.552C90.5927 22.1787 90.038 21.6613 89.6434 21C89.2594 20.328 89.0674 19.5707 89.0674 18.728C89.0674 17.896 89.254 17.1493 89.6274 16.488C90.0114 15.816 90.5394 15.2933 91.2114 14.92C91.8834 14.5467 92.6407 14.36 93.4834 14.36C94.3154 14.36 95.0567 14.5467 95.7074 14.92C96.3687 15.2827 96.8807 15.8 97.2434 16.472C97.6167 17.1333 97.8034 17.9013 97.8034 18.776ZM93.4834 15.96C92.8434 15.96 92.2994 16.152 91.8514 16.536C91.414 16.9093 91.1474 17.4107 91.0514 18.04H95.8994C95.814 17.4213 95.5527 16.92 95.1154 16.536C94.678 16.152 94.134 15.96 93.4834 15.96ZM113.538 21.256V23H105.138V11.8H113.314V13.544H107.218V16.456H112.626V18.168H107.218V21.256H113.538ZM124.355 11.128V23H122.435V21.896C122.104 22.3013 121.694 22.6053 121.203 22.808C120.723 23.0107 120.19 23.112 119.603 23.112C118.782 23.112 118.04 22.9307 117.379 22.568C116.728 22.2053 116.216 21.6933 115.843 21.032C115.47 20.36 115.283 19.592 115.283 18.728C115.283 17.864 115.47 17.1013 115.843 16.44C116.216 15.7787 116.728 15.2667 117.379 14.904C118.04 14.5413 118.782 14.36 119.603 14.36C120.168 14.36 120.686 14.456 121.155 14.648C121.624 14.84 122.024 15.128 122.355 15.512V11.128H124.355ZM119.843 21.4C120.323 21.4 120.755 21.2933 121.139 21.08C121.523 20.856 121.827 20.5413 122.051 20.136C122.275 19.7307 122.387 19.2613 122.387 18.728C122.387 18.1947 122.275 17.7253 122.051 17.32C121.827 16.9147 121.523 16.6053 121.139 16.392C120.755 16.168 120.323 16.056 119.843 16.056C119.363 16.056 118.931 16.168 118.547 16.392C118.163 16.6053 117.859 16.9147 117.635 17.32C117.411 17.7253 117.299 18.1947 117.299 18.728C117.299 19.2613 117.411 19.7307 117.635 20.136C117.859 20.5413 118.163 20.856 118.547 21.08C118.931 21.2933 119.363 21.4 119.843 21.4ZM127.371 14.456H129.371V23H127.371V14.456ZM128.379 13.048C128.017 13.048 127.713 12.936 127.467 12.712C127.222 12.4773 127.099 12.1893 127.099 11.848C127.099 11.5067 127.222 11.224 127.467 11C127.713 10.7653 128.017 10.648 128.379 10.648C128.742 10.648 129.046 10.76 129.291 10.984C129.537 11.1973 129.659 11.4693 129.659 11.8C129.659 12.152 129.537 12.4507 129.291 12.696C129.057 12.9307 128.753 13.048 128.379 13.048ZM137.532 22.536C137.298 22.728 137.01 22.872 136.668 22.968C136.338 23.064 135.986 23.112 135.612 23.112C134.674 23.112 133.948 22.8667 133.436 22.376C132.924 21.8853 132.668 21.1707 132.668 20.232V16.12H131.26V14.52H132.668V12.568H134.668V14.52H136.956V16.12H134.668V20.184C134.668 20.6 134.77 20.92 134.972 21.144C135.175 21.3573 135.468 21.464 135.852 21.464C136.3 21.464 136.674 21.3467 136.972 21.112L137.532 22.536ZM143.136 23.112C142.272 23.112 141.494 22.9253 140.8 22.552C140.107 22.1787 139.563 21.6613 139.168 21C138.784 20.328 138.592 19.5707 138.592 18.728C138.592 17.8853 138.784 17.1333 139.168 16.472C139.563 15.8107 140.107 15.2933 140.8 14.92C141.494 14.5467 142.272 14.36 143.136 14.36C144.011 14.36 144.795 14.5467 145.488 14.92C146.182 15.2933 146.72 15.8107 147.104 16.472C147.499 17.1333 147.696 17.8853 147.696 18.728C147.696 19.5707 147.499 20.328 147.104 21C146.72 21.6613 146.182 22.1787 145.488 22.552C144.795 22.9253 144.011 23.112 143.136 23.112ZM143.136 21.4C143.872 21.4 144.48 21.1547 144.96 20.664C145.44 20.1733 145.68 19.528 145.68 18.728C145.68 17.928 145.44 17.2827 144.96 16.792C144.48 16.3013 143.872 16.056 143.136 16.056C142.4 16.056 141.792 16.3013 141.312 16.792C140.843 17.2827 140.608 17.928 140.608 18.728C140.608 19.528 140.843 20.1733 141.312 20.664C141.792 21.1547 142.4 21.4 143.136 21.4ZM151.913 15.704C152.489 14.808 153.502 14.36 154.953 14.36V16.264C154.782 16.232 154.628 16.216 154.489 16.216C153.71 16.216 153.102 16.4453 152.665 16.904C152.228 17.352 152.009 18.0027 152.009 18.856V23H150.009V14.456H151.913V15.704Z" fill="#EEF0FA"/>
</svg>
