<svg width="156" height="34" viewBox="0 0 156 34" fill="none" xmlns="http://www.w3.org/2000/svg">
<path d="M16 33C24.8366 33 32 25.8366 32 17C32 8.16344 24.8366 1 16 1C7.16344 1 0 8.16344 0 17C0 25.8366 7.16344 33 16 33Z" fill="#3751FF"/>
<g filter="url(#filter0_i_110_668)">
<path d="M14.1347 23.8892C14.1347 24.1356 13.9985 24.3617 13.7807 24.477C12.3014 25.2597 10.5208 24.1872 10.5208 22.5138V10.4302L12.4024 8.69619C13.064 8.08647 14.1347 8.55576 14.1347 9.45548V23.8892Z" fill="#D1E1FF"/>
</g>
<g filter="url(#filter1_i_110_668)">
<path d="M12.4138 3.3999C13.3643 3.3999 14.1347 4.17038 14.1347 5.12081C14.1347 6.07123 13.3643 6.84171 12.4138 6.84171C11.4634 6.84171 10.6929 6.07123 10.6929 5.12081C10.6929 4.17038 11.4634 3.3999 12.4138 3.3999Z" fill="#D1E1FF"/>
</g>
<g filter="url(#filter2_i_110_668)">
<path d="M10.5273 16.6514L21.3231 20.6871C22.136 21.0251 22.5706 21.9152 22.3372 22.7641C22.0539 23.7941 20.921 24.3311 19.9443 23.8983L13.3214 21.3683C12.3103 20.9821 11.3088 20.405 10.8501 19.4246C10.4471 18.5635 10.5273 17.8458 10.5273 16.6514Z" fill="white"/>
</g>
<g filter="url(#filter3_i_110_668)">
<path d="M10.5273 22.6743L21.3231 26.7102C22.136 27.0482 22.5706 27.9382 22.3372 28.7871C22.0539 29.8171 20.921 30.3542 19.9443 29.9214L13.3214 27.3913C12.3103 27.0051 11.3088 26.4279 10.8501 25.4477C10.4471 24.5866 10.5273 23.8688 10.5273 22.6743Z" fill="white"/>
</g>
<g filter="url(#filter4_i_110_668)">
<path d="M10.5273 10.4561L21.323 14.4918C22.136 14.8298 22.5706 15.7198 22.3372 16.5687C22.0539 17.5988 20.9209 18.1358 19.9442 17.7031L12.2669 14.5832C11.2422 14.1668 10.5661 13.1776 10.5503 12.0716L10.5273 10.4561Z" fill="white"/>
</g>
<path d="M45.504 11.7999H47.584V22.9999H45.504V11.7999ZM61.6054 14.3599C62.6827 14.3599 63.536 14.6746 64.1654 15.3039C64.7947 15.9226 65.1094 16.8559 65.1094 18.1039V22.9999H63.1094V18.36C63.1094 17.6133 62.944 17.0532 62.6134 16.6799C62.2827 16.2959 61.808 16.1039 61.1894 16.1039C60.5174 16.1039 59.9787 16.3279 59.5734 16.7759C59.168 17.2132 58.9654 17.8426 58.9654 18.6639V22.9999H56.9654V18.36C56.9654 17.6133 56.8 17.0532 56.4694 16.6799C56.1387 16.2959 55.664 16.1039 55.0454 16.1039C54.3627 16.1039 53.8187 16.3226 53.4134 16.7599C53.0187 17.1972 52.8214 17.8319 52.8214 18.6639V22.9999H50.8214V14.4559H52.7254V15.5439C53.0454 15.1599 53.4454 14.8666 53.9254 14.6639C54.4054 14.4612 54.9387 14.3599 55.5254 14.3599C56.1654 14.3599 56.7307 14.4826 57.2214 14.7279C57.7227 14.9626 58.1174 15.3146 58.4054 15.7839C58.7574 15.3359 59.2107 14.9892 59.7654 14.7439C60.32 14.4879 60.9334 14.3599 61.6054 14.3599ZM71.3291 14.3599C72.5878 14.3599 73.5478 14.6639 74.2091 15.2719C74.8811 15.8692 75.2171 16.776 75.2171 17.992V22.9999H73.3291V21.9599C73.0838 22.3332 72.7318 22.6212 72.2731 22.8239C71.8251 23.0159 71.2811 23.1119 70.6411 23.1119C70.0011 23.1119 69.4411 23.0052 68.9611 22.7919C68.4811 22.5679 68.1078 22.2639 67.8411 21.8799C67.5851 21.4852 67.4571 21.0426 67.4571 20.5519C67.4571 19.7839 67.7398 19.1706 68.3051 18.7119C68.8811 18.2426 69.7825 18.0079 71.0091 18.0079H73.2171V17.8799C73.2171 17.2826 73.0358 16.8239 72.6731 16.5039C72.3211 16.1839 71.7931 16.0239 71.0891 16.0239C70.6091 16.0239 70.1345 16.0986 69.6651 16.2479C69.2065 16.3972 68.8171 16.6052 68.4971 16.8719L67.7131 15.4159C68.1611 15.0746 68.6998 14.8132 69.3291 14.6319C69.9585 14.4506 70.6251 14.3599 71.3291 14.3599ZM71.0571 21.6559C71.5585 21.6559 72.0011 21.5439 72.3851 21.3199C72.7798 21.0852 73.0571 20.7546 73.2171 20.3279V19.3359H71.1531C70.0011 19.3359 69.4251 19.7146 69.4251 20.4719C69.4251 20.8346 69.5691 21.1226 69.8571 21.3359C70.1451 21.5492 70.5451 21.6559 71.0571 21.6559ZM86.742 14.4559V21.7039C86.742 24.7119 85.206 26.2159 82.134 26.2159C81.3127 26.2159 80.534 26.1092 79.798 25.8959C79.062 25.6932 78.454 25.3946 77.974 24.9999L78.87 23.4959C79.2433 23.8052 79.7127 24.0506 80.278 24.2319C80.854 24.4239 81.4353 24.5199 82.022 24.5199C82.9607 24.5199 83.6487 24.3066 84.086 23.8799C84.5233 23.4532 84.742 22.8026 84.742 21.9279V21.4799C84.4007 21.8532 83.9847 22.1359 83.494 22.3279C83.0033 22.5199 82.4647 22.6159 81.878 22.6159C81.0673 22.6159 80.3313 22.4452 79.67 22.1039C79.0193 21.7519 78.502 21.2612 78.118 20.6319C77.7447 20.0026 77.558 19.2826 77.558 18.4719C77.558 17.6612 77.7447 16.9466 78.118 16.3279C78.502 15.6986 79.0193 15.2132 79.67 14.8719C80.3313 14.5306 81.0673 14.3599 81.878 14.3599C82.4967 14.3599 83.0567 14.4612 83.558 14.6639C84.07 14.8666 84.4967 15.1759 84.838 15.5919V14.4559H86.742ZM82.182 20.9199C82.9393 20.9199 83.558 20.6959 84.038 20.2479C84.5287 19.7892 84.774 19.1972 84.774 18.4719C84.774 17.7572 84.5287 17.176 84.038 16.728C83.558 16.28 82.9393 16.0559 82.182 16.0559C81.414 16.0559 80.7847 16.28 80.294 16.728C79.814 17.176 79.574 17.7572 79.574 18.4719C79.574 19.1972 79.814 19.7892 80.294 20.2479C80.7847 20.6959 81.414 20.9199 82.182 20.9199ZM97.8034 18.7759C97.8034 18.9146 97.7927 19.1119 97.7714 19.3679H91.0674C91.1847 19.9972 91.4887 20.4986 91.9794 20.8719C92.4807 21.2346 93.0994 21.4159 93.8354 21.4159C94.774 21.4159 95.5474 21.1067 96.1554 20.488L97.2274 21.7199C96.8434 22.1786 96.358 22.5252 95.7714 22.7599C95.1847 22.9946 94.5234 23.1119 93.7874 23.1119C92.8487 23.1119 92.022 22.9252 91.3074 22.5519C90.5927 22.1786 90.038 21.6612 89.6434 20.9999C89.2594 20.3279 89.0674 19.5707 89.0674 18.728C89.0674 17.896 89.254 17.1493 89.6274 16.488C90.0114 15.816 90.5394 15.2932 91.2114 14.9199C91.8834 14.5466 92.6407 14.3599 93.4834 14.3599C94.3154 14.3599 95.0567 14.5466 95.7074 14.9199C96.3687 15.2826 96.8807 15.7999 97.2434 16.4719C97.6167 17.1332 97.8034 17.9012 97.8034 18.7759ZM93.4834 15.9599C92.8434 15.9599 92.2994 16.1519 91.8514 16.5359C91.414 16.9092 91.1474 17.4107 91.0514 18.04H95.8994C95.814 17.4213 95.5527 16.9199 95.1154 16.5359C94.678 16.1519 94.134 15.9599 93.4834 15.9599ZM113.538 21.2559V22.9999H105.138V11.7999H113.314V13.5439H107.218V16.4559H112.626V18.1679H107.218V21.2559H113.538ZM124.355 11.1279V22.9999H122.435V21.8959C122.104 22.3012 121.694 22.6053 121.203 22.808C120.723 23.0107 120.19 23.1119 119.603 23.1119C118.782 23.1119 118.04 22.9307 117.379 22.568C116.728 22.2053 116.216 21.6932 115.843 21.0319C115.47 20.3599 115.283 19.592 115.283 18.728C115.283 17.864 115.47 17.1012 115.843 16.4399C116.216 15.7786 116.728 15.2666 117.379 14.9039C118.04 14.5412 118.782 14.3599 119.603 14.3599C120.168 14.3599 120.686 14.4559 121.155 14.6479C121.624 14.8399 122.024 15.1279 122.355 15.5119V11.1279H124.355ZM119.843 21.3999C120.323 21.3999 120.755 21.2932 121.139 21.0799C121.523 20.8559 121.827 20.5412 122.051 20.1359C122.275 19.7306 122.387 19.2613 122.387 18.728C122.387 18.1947 122.275 17.7252 122.051 17.3199C121.827 16.9146 121.523 16.6052 121.139 16.3919C120.755 16.1679 120.323 16.0559 119.843 16.0559C119.363 16.0559 118.931 16.1679 118.547 16.3919C118.163 16.6052 117.859 16.9146 117.635 17.3199C117.411 17.7252 117.299 18.1947 117.299 18.728C117.299 19.2613 117.411 19.7306 117.635 20.1359C117.859 20.5412 118.163 20.8559 118.547 21.0799C118.931 21.2932 119.363 21.3999 119.843 21.3999ZM127.371 14.4559H129.371V22.9999H127.371V14.4559ZM128.379 13.0479C128.017 13.0479 127.713 12.9359 127.467 12.7119C127.222 12.4772 127.099 12.1892 127.099 11.8479C127.099 11.5066 127.222 11.2239 127.467 10.9999C127.713 10.7652 128.017 10.6479 128.379 10.6479C128.742 10.6479 129.046 10.7599 129.291 10.9839C129.537 11.1972 129.659 11.4692 129.659 11.7999C129.659 12.1519 129.537 12.4506 129.291 12.6959C129.057 12.9306 128.753 13.0479 128.379 13.0479ZM137.532 22.5359C137.298 22.7279 137.01 22.8719 136.668 22.9679C136.338 23.0639 135.986 23.1119 135.612 23.1119C134.674 23.1119 133.948 22.8666 133.436 22.3759C132.924 21.8852 132.668 21.1706 132.668 20.2319V16.12H131.26V14.5199H132.668V12.5679H134.668V14.5199H136.956V16.12H134.668V20.1839C134.668 20.5999 134.77 20.9199 134.972 21.1439C135.175 21.3572 135.468 21.464 135.852 21.464C136.3 21.464 136.674 21.3466 136.972 21.1119L137.532 22.5359ZM143.136 23.1119C142.272 23.1119 141.494 22.9252 140.8 22.5519C140.107 22.1786 139.563 21.6612 139.168 20.9999C138.784 20.3279 138.592 19.5707 138.592 18.728C138.592 17.8853 138.784 17.1332 139.168 16.4719C139.563 15.8106 140.107 15.2932 140.8 14.9199C141.494 14.5466 142.272 14.3599 143.136 14.3599C144.011 14.3599 144.795 14.5466 145.488 14.9199C146.182 15.2932 146.72 15.8106 147.104 16.4719C147.499 17.1332 147.696 17.8853 147.696 18.728C147.696 19.5707 147.499 20.3279 147.104 20.9999C146.72 21.6612 146.182 22.1786 145.488 22.5519C144.795 22.9252 144.011 23.1119 143.136 23.1119ZM143.136 21.3999C143.872 21.3999 144.48 21.1546 144.96 20.6639C145.44 20.1732 145.68 19.528 145.68 18.728C145.68 17.928 145.44 17.2826 144.96 16.7919C144.48 16.3012 143.872 16.0559 143.136 16.0559C142.4 16.0559 141.792 16.3012 141.312 16.7919C140.843 17.2826 140.608 17.928 140.608 18.728C140.608 19.528 140.843 20.1732 141.312 20.6639C141.792 21.1546 142.4 21.3999 143.136 21.3999ZM151.913 15.7039C152.489 14.8079 153.502 14.3599 154.953 14.3599V16.2639C154.782 16.2319 154.628 16.2159 154.489 16.2159C153.71 16.2159 153.102 16.4452 152.665 16.9039C152.228 17.3519 152.009 18.0027 152.009 18.856V22.9999H150.009V14.4559H151.913V15.7039Z" fill="#505055"/>
<defs>
<filter id="filter0_i_110_668" x="10.5208" y="8.4209" width="3.61389" height="18.3169" filterUnits="userSpaceOnUse" color-interpolation-filters="sRGB">
<feFlood flood-opacity="0" result="BackgroundImageFix"/>
<feBlend mode="normal" in="SourceGraphic" in2="BackgroundImageFix" result="shape"/>
<feColorMatrix in="SourceAlpha" type="matrix" values="0 0 0 0 0 0 0 0 0 0 0 0 0 0 0 0 0 0 127 0" result="hardAlpha"/>
<feOffset dy="2"/>
<feGaussianBlur stdDeviation="2"/>
<feComposite in2="hardAlpha" operator="arithmetic" k2="-1" k3="1"/>
<feColorMatrix type="matrix" values="0 0 0 0 0 0 0 0 0 0 0 0 0 0 0 0 0 0 0.16 0"/>
<feBlend mode="normal" in2="shape" result="effect1_innerShadow_110_668"/>
</filter>
<filter id="filter1_i_110_668" x="10.6929" y="3.3999" width="3.4418" height="5.44189" filterUnits="userSpaceOnUse" color-interpolation-filters="sRGB">
<feFlood flood-opacity="0" result="BackgroundImageFix"/>
<feBlend mode="normal" in="SourceGraphic" in2="BackgroundImageFix" result="shape"/>
<feColorMatrix in="SourceAlpha" type="matrix" values="0 0 0 0 0 0 0 0 0 0 0 0 0 0 0 0 0 0 127 0" result="hardAlpha"/>
<feOffset dy="2"/>
<feGaussianBlur stdDeviation="2"/>
<feComposite in2="hardAlpha" operator="arithmetic" k2="-1" k3="1"/>
<feColorMatrix type="matrix" values="0 0 0 0 0 0 0 0 0 0 0 0 0 0 0 0 0 0 0.16 0"/>
<feBlend mode="normal" in2="shape" result="effect1_innerShadow_110_668"/>
</filter>
<filter id="filter2_i_110_668" x="10.5208" y="16.6514" width="11.8792" height="9.39746" filterUnits="userSpaceOnUse" color-interpolation-filters="sRGB">
<feFlood flood-opacity="0" result="BackgroundImageFix"/>
<feBlend mode="normal" in="SourceGraphic" in2="BackgroundImageFix" result="shape"/>
<feColorMatrix in="SourceAlpha" type="matrix" values="0 0 0 0 0 0 0 0 0 0 0 0 0 0 0 0 0 0 127 0" result="hardAlpha"/>
<feOffset dy="2"/>
<feGaussianBlur stdDeviation="3"/>
<feComposite in2="hardAlpha" operator="arithmetic" k2="-1" k3="1"/>
<feColorMatrix type="matrix" values="0 0 0 0 0 0 0 0 0 0 0 0 0 0 0 0 0 0 0.15 0"/>
<feBlend mode="normal" in2="shape" result="effect1_innerShadow_110_668"/>
</filter>
<filter id="filter3_i_110_668" x="10.5208" y="22.6743" width="11.8792" height="9.39795" filterUnits="userSpaceOnUse" color-interpolation-filters="sRGB">
<feFlood flood-opacity="0" result="BackgroundImageFix"/>
<feBlend mode="normal" in="SourceGraphic" in2="BackgroundImageFix" result="shape"/>
<feColorMatrix in="SourceAlpha" type="matrix" values="0 0 0 0 0 0 0 0 0 0 0 0 0 0 0 0 0 0 127 0" result="hardAlpha"/>
<feOffset dy="2"/>
<feGaussianBlur stdDeviation="3"/>
<feComposite in2="hardAlpha" operator="arithmetic" k2="-1" k3="1"/>
<feColorMatrix type="matrix" values="0 0 0 0 0 0 0 0 0 0 0 0 0 0 0 0 0 0 0.15 0"/>
<feBlend mode="normal" in2="shape" result="effect1_innerShadow_110_668"/>
</filter>
<filter id="filter4_i_110_668" x="10.5273" y="10.4561" width="11.8727" height="9.39746" filterUnits="userSpaceOnUse" color-interpolation-filters="sRGB">
<feFlood flood-opacity="0" result="BackgroundImageFix"/>
<feBlend mode="normal" in="SourceGraphic" in2="BackgroundImageFix" result="shape"/>
<feColorMatrix in="SourceAlpha" type="matrix" values="0 0 0 0 0 0 0 0 0 0 0 0 0 0 0 0 0 0 127 0" result="hardAlpha"/>
<feOffset dy="2"/>
<feGaussianBlur stdDeviation="3"/>
<feComposite in2="hardAlpha" operator="arithmetic" k2="-1" k3="1"/>
<feColorMatrix type="matrix" values="0 0 0 0 0 0 0 0 0 0 0 0 0 0 0 0 0 0 0.15 0"/>
<feBlend mode="normal" in2="shape" result="effect1_innerShadow_110_668"/>
</filter>
</defs>
</svg>
