<svg width="19" height="18" viewBox="0 0 19 18" fill="none" xmlns="http://www.w3.org/2000/svg">
<path d="M16.6956 10.5471C16.2057 10.8669 15.6761 11.1214 15.1202 11.3041C13.0565 11.9899 10.7208 11.6147 9.01215 10.2691C8.59163 9.93318 8.20986 9.55145 7.87393 9.13096C6.52835 7.42217 6.15312 5.08649 6.83893 3.02254C7.02155 2.46675 7.2761 1.93724 7.59611 1.4475C7.70596 1.28713 7.7625 1.09623 7.75768 0.901909C7.75286 0.707586 7.68694 0.51972 7.56927 0.364997C7.4516 0.210274 7.28818 0.0965612 7.10221 0.0400074C6.91623 -0.0165463 6.71716 -0.0130651 6.53328 0.0499586C5.03194 0.530657 3.67943 1.38931 2.60563 2.54346C1.53183 3.6976 0.772831 5.10845 0.401525 6.64052C0.0302185 8.17258 0.05908 9.77438 0.48534 11.2921C0.9116 12.8098 1.72094 14.1924 2.83562 15.3071C3.9503 16.4218 5.33287 17.2312 6.85055 17.6574C8.36823 18.0837 9.97003 18.1126 11.5021 17.7414C13.0342 17.3701 14.4451 16.6112 15.5992 15.5374C16.7534 14.4636 17.6121 13.1111 18.0928 11.6098C18.156 11.4259 18.1596 11.2268 18.1031 11.0408C18.0466 10.8548 17.9329 10.6914 17.7781 10.5737C17.6234 10.456 17.4355 10.3901 17.2412 10.3853C17.0468 10.3805 16.8559 10.4372 16.6956 10.5471Z" fill="#3751FF"/>
</svg>
