<svg width="16" height="14" viewBox="0 0 16 14" fill="none" xmlns="http://www.w3.org/2000/svg">
<symbol   viewBox="0 0 16 14"  id="reset">
<path d="M9 13C10.1867 13 11.3467 12.6481 12.3334 11.9888C13.3201 11.3295 14.0892 10.3925 14.5433 9.2961C14.9974 8.19975 15.1162 6.99335 14.8847 5.82946C14.6532 4.66558 14.0818 3.59648 13.2426 2.75736C12.4035 1.91825 11.3344 1.3468 10.1705 1.11529C9.00666 0.88378 7.80026 1.0026 6.7039 1.45673C5.60754 1.91085 4.67047 2.67989 4.01118 3.66658C3.35189 4.65328 3 5.81332 3 7V10.1L1.2 8.3L0.5 9L3.5 12L6.5 9L5.8 8.3L4 10.1V7C4 6.0111 4.29325 5.0444 4.84265 4.22215C5.39206 3.39991 6.17295 2.75904 7.08658 2.38061C8.00021 2.00217 9.00555 1.90315 9.97545 2.09608C10.9454 2.289 11.8363 2.76521 12.5355 3.46447C13.2348 4.16373 13.711 5.05465 13.9039 6.02455C14.0969 6.99446 13.9978 7.99979 13.6194 8.91342C13.241 9.82705 12.6001 10.6079 11.7779 11.1574C10.9556 11.7068 9.98891 12 9 12V13Z"  stroke="#A4A6B3" stroke-width="0.5"/>
</symbol>
</svg>
