<svg width="18" height="18" viewBox="0 0 18 18" fill="none" xmlns="http://www.w3.org/2000/svg">
<symbol viewBox="0 0 18 18"  id="rotate">
<path d="M13.5501 11.7405C13.8607 11.7405 14.1126 11.4887 14.1126 11.178C14.1126 10.8673 13.8607 10.6155 13.5501 10.6155C13.2394 10.6155 12.9876 10.8673 12.9876 11.178C12.9876 11.4887 13.2394 11.7405 13.5501 11.7405Z"/>
<path d="M4.80937 12.5533C5.12003 12.5533 5.37187 12.3015 5.37187 11.9908C5.37187 11.6802 5.12003 11.4283 4.80937 11.4283C4.49871 11.4283 4.24687 11.6802 4.24687 11.9908C4.24687 12.3015 4.49871 12.5533 4.80937 12.5533Z"/>
<path d="M6.38493 13.9629C6.69559 13.9629 6.94743 13.7111 6.94743 13.4004C6.94743 13.0898 6.69559 12.8379 6.38493 12.8379C6.07427 12.8379 5.82243 13.0898 5.82243 13.4004C5.82243 13.7111 6.07427 13.9629 6.38493 13.9629Z"/>
<path d="M8.42513 14.6267C8.73579 14.6267 8.98763 14.3749 8.98763 14.0642C8.98763 13.7535 8.73579 13.5017 8.42513 13.5017C8.11446 13.5017 7.86263 13.7535 7.86263 14.0642C7.86263 14.3749 8.11446 14.6267 8.42513 14.6267Z"/>
<path d="M10.5148 14.4276C10.8255 14.4276 11.0773 14.1757 11.0773 13.8651C11.0773 13.5544 10.8255 13.3026 10.5148 13.3026C10.2042 13.3026 9.95232 13.5544 9.95232 13.8651C9.95232 14.1757 10.2042 14.4276 10.5148 14.4276Z"/>
<path d="M12.3064 13.3993C12.617 13.3993 12.8689 13.1475 12.8689 12.8368C12.8689 12.5261 12.617 12.2743 12.3064 12.2743C11.9957 12.2743 11.7439 12.5261 11.7439 12.8368C11.7439 13.1475 11.9957 13.3993 12.3064 13.3993Z"/>
<path d="M8.95612 3.375C10.6357 3.375 12.1337 4.12425 13.1563 5.29875L14.7009 4.63275C14.8095 4.5855 14.9242 4.68675 14.8911 4.80038L13.9056 8.19788L10.3748 6.75619C10.2668 6.71231 10.2566 6.56325 10.3573 6.50475L12.0718 5.76562C11.2658 4.977 10.1706 4.48312 8.95612 4.48312C6.49069 4.48312 4.48425 6.489 4.48425 8.955C4.48425 9.28069 4.50112 9.59287 4.58888 9.90281C4.66931 10.188 4.51069 10.4996 4.24069 10.5789C3.95831 10.6616 3.60844 10.5694 3.51056 10.1627C3.41719 9.77625 3.375 9.37125 3.375 8.95556C3.375 5.87362 5.87363 3.375 8.95612 3.375Z"/>
</symbol>
</svg>
