<svg width="95" height="30" viewBox="0 0 95 30" fill="none" xmlns="http://www.w3.org/2000/svg">
<rect width="95" height="30" rx="15" fill="#3751FF"/>
<path d="M20.0703 17.3955C20.0703 17.2178 20.043 17.0583 19.9883 16.917C19.9382 16.7712 19.8424 16.639 19.7012 16.5205C19.5599 16.3975 19.3617 16.2767 19.1064 16.1582C18.8512 16.0397 18.5208 15.9167 18.1152 15.7891C17.6641 15.6432 17.2357 15.4792 16.8301 15.2969C16.429 15.1146 16.0736 14.9027 15.7637 14.6611C15.4583 14.415 15.2168 14.1302 15.0391 13.8066C14.8659 13.4831 14.7793 13.1071 14.7793 12.6787C14.7793 12.264 14.8704 11.888 15.0527 11.5508C15.235 11.209 15.4902 10.9173 15.8184 10.6758C16.1465 10.4297 16.5339 10.2406 16.9805 10.1084C17.4316 9.97624 17.9261 9.91016 18.4639 9.91016C19.1976 9.91016 19.8379 10.0423 20.3848 10.3066C20.9316 10.571 21.3555 10.9333 21.6562 11.3936C21.9616 11.8538 22.1143 12.3802 22.1143 12.9727H20.0771C20.0771 12.681 20.0156 12.4258 19.8926 12.207C19.7741 11.9837 19.5918 11.8083 19.3457 11.6807C19.1042 11.5531 18.7988 11.4893 18.4297 11.4893C18.0742 11.4893 17.778 11.5439 17.541 11.6533C17.304 11.7581 17.1263 11.9017 17.0078 12.084C16.8893 12.2617 16.8301 12.4622 16.8301 12.6855C16.8301 12.8542 16.8711 13.0068 16.9531 13.1436C17.0397 13.2803 17.1673 13.4079 17.3359 13.5264C17.5046 13.6449 17.7119 13.7565 17.958 13.8613C18.2041 13.9661 18.4889 14.0687 18.8125 14.1689C19.3548 14.333 19.8311 14.5176 20.2412 14.7227C20.6559 14.9277 21.0023 15.1579 21.2803 15.4131C21.5583 15.6683 21.7679 15.9577 21.9092 16.2812C22.0505 16.6048 22.1211 16.9717 22.1211 17.3818C22.1211 17.8148 22.0368 18.2021 21.8682 18.5439C21.6995 18.8857 21.4557 19.1751 21.1367 19.4121C20.8177 19.6491 20.4372 19.8291 19.9951 19.9521C19.5531 20.0752 19.0586 20.1367 18.5117 20.1367C18.0195 20.1367 17.5342 20.0729 17.0557 19.9453C16.5771 19.8132 16.1419 19.6149 15.75 19.3506C15.3626 19.0863 15.0527 18.749 14.8203 18.3389C14.5879 17.9287 14.4717 17.4434 14.4717 16.8828H16.5293C16.5293 17.1927 16.5771 17.4548 16.6729 17.6689C16.7686 17.8831 16.903 18.0563 17.0762 18.1885C17.2539 18.3206 17.4635 18.4163 17.7051 18.4756C17.9512 18.5348 18.2201 18.5645 18.5117 18.5645C18.8672 18.5645 19.1589 18.5143 19.3867 18.4141C19.6191 18.3138 19.79 18.1748 19.8994 17.9971C20.0133 17.8193 20.0703 17.6188 20.0703 17.3955ZM27.1969 20.1367C26.6227 20.1367 26.1077 20.0456 25.652 19.8633C25.1962 19.6764 24.8089 19.4189 24.4898 19.0908C24.1754 18.7627 23.9339 18.3822 23.7652 17.9492C23.5966 17.5117 23.5123 17.0469 23.5123 16.5547V16.2812C23.5123 15.7207 23.5921 15.208 23.7516 14.7432C23.9111 14.2783 24.1389 13.875 24.4352 13.5332C24.7359 13.1914 25.1005 12.9294 25.5289 12.7471C25.9573 12.5602 26.4404 12.4668 26.9781 12.4668C27.5022 12.4668 27.9671 12.5534 28.3727 12.7266C28.7783 12.8997 29.1178 13.1458 29.3912 13.4648C29.6692 13.7839 29.8788 14.1667 30.0201 14.6133C30.1614 15.0553 30.232 15.5475 30.232 16.0898V16.9102H24.3531V15.5977H28.2975V15.4473C28.2975 15.1738 28.2473 14.93 28.1471 14.7158C28.0514 14.4971 27.9055 14.3239 27.7096 14.1963C27.5136 14.0687 27.263 14.0049 26.9576 14.0049C26.6979 14.0049 26.4745 14.0618 26.2877 14.1758C26.1008 14.2897 25.9482 14.4492 25.8297 14.6543C25.7158 14.8594 25.6292 15.1009 25.5699 15.3789C25.5152 15.6523 25.4879 15.9531 25.4879 16.2812V16.5547C25.4879 16.8509 25.5289 17.1243 25.6109 17.375C25.6975 17.6257 25.8183 17.8421 25.9732 18.0244C26.1327 18.2067 26.3242 18.348 26.5475 18.4482C26.7753 18.5485 27.0328 18.5986 27.3199 18.5986C27.6754 18.5986 28.0058 18.5303 28.3111 18.3936C28.621 18.2523 28.8876 18.0404 29.1109 17.7578L30.068 18.7969C29.913 19.0202 29.7011 19.2344 29.4322 19.4395C29.1679 19.6445 28.8489 19.8132 28.4752 19.9453C28.1015 20.0729 27.6754 20.1367 27.1969 20.1367ZM33.8312 9.5V20H31.8557V9.5H33.8312ZM39.2625 20.1367C38.6883 20.1367 38.1733 20.0456 37.7176 19.8633C37.2618 19.6764 36.8745 19.4189 36.5555 19.0908C36.241 18.7627 35.9995 18.3822 35.8309 17.9492C35.6622 17.5117 35.5779 17.0469 35.5779 16.5547V16.2812C35.5779 15.7207 35.6577 15.208 35.8172 14.7432C35.9767 14.2783 36.2046 13.875 36.5008 13.5332C36.8016 13.1914 37.1661 12.9294 37.5945 12.7471C38.0229 12.5602 38.506 12.4668 39.0438 12.4668C39.5678 12.4668 40.0327 12.5534 40.4383 12.7266C40.8439 12.8997 41.1834 13.1458 41.4568 13.4648C41.7348 13.7839 41.9445 14.1667 42.0857 14.6133C42.227 15.0553 42.2977 15.5475 42.2977 16.0898V16.9102H36.4188V15.5977H40.3631V15.4473C40.3631 15.1738 40.313 14.93 40.2127 14.7158C40.117 14.4971 39.9712 14.3239 39.7752 14.1963C39.5792 14.0687 39.3286 14.0049 39.0232 14.0049C38.7635 14.0049 38.5402 14.0618 38.3533 14.1758C38.1665 14.2897 38.0138 14.4492 37.8953 14.6543C37.7814 14.8594 37.6948 15.1009 37.6355 15.3789C37.5809 15.6523 37.5535 15.9531 37.5535 16.2812V16.5547C37.5535 16.8509 37.5945 17.1243 37.6766 17.375C37.7632 17.6257 37.8839 17.8421 38.0389 18.0244C38.1984 18.2067 38.3898 18.348 38.6131 18.4482C38.841 18.5485 39.0984 18.5986 39.3855 18.5986C39.741 18.5986 40.0714 18.5303 40.3768 18.3936C40.6867 18.2523 40.9533 18.0404 41.1766 17.7578L42.1336 18.7969C41.9786 19.0202 41.7667 19.2344 41.4979 19.4395C41.2335 19.6445 40.9145 19.8132 40.5408 19.9453C40.1671 20.0729 39.741 20.1367 39.2625 20.1367ZM46.8744 18.5986C47.116 18.5986 47.3301 18.5531 47.517 18.4619C47.7038 18.3662 47.8497 18.234 47.9545 18.0654C48.0639 17.8923 48.1208 17.6895 48.1254 17.457H49.9779C49.9734 17.9766 49.8344 18.4391 49.5609 18.8447C49.2875 19.2458 48.9206 19.5625 48.4604 19.7949C48.0001 20.0228 47.4851 20.1367 46.9154 20.1367C46.3412 20.1367 45.8399 20.041 45.4115 19.8496C44.9877 19.6582 44.6345 19.3939 44.352 19.0566C44.0694 18.7148 43.8575 18.3184 43.7162 17.8672C43.5749 17.4115 43.5043 16.9238 43.5043 16.4043V16.2061C43.5043 15.682 43.5749 15.1943 43.7162 14.7432C43.8575 14.2874 44.0694 13.891 44.352 13.5537C44.6345 13.2119 44.9877 12.9453 45.4115 12.7539C45.8354 12.5625 46.3321 12.4668 46.9018 12.4668C47.5079 12.4668 48.0388 12.583 48.4945 12.8154C48.9548 13.0479 49.3148 13.3805 49.5746 13.8135C49.8389 14.2419 49.9734 14.75 49.9779 15.3379H48.1254C48.1208 15.0918 48.0684 14.8685 47.9682 14.668C47.8725 14.4674 47.7312 14.3079 47.5443 14.1895C47.362 14.0664 47.1365 14.0049 46.8676 14.0049C46.5805 14.0049 46.3458 14.0664 46.1635 14.1895C45.9812 14.3079 45.8399 14.472 45.7396 14.6816C45.6394 14.8867 45.5688 15.1214 45.5277 15.3857C45.4913 15.6455 45.473 15.9189 45.473 16.2061V16.4043C45.473 16.6914 45.4913 16.9671 45.5277 17.2314C45.5642 17.4958 45.6326 17.7305 45.7328 17.9355C45.8376 18.1406 45.9812 18.3024 46.1635 18.4209C46.3458 18.5394 46.5827 18.5986 46.8744 18.5986ZM55.1426 12.6035V13.998H50.8359V12.6035H55.1426ZM51.9023 10.7783H53.8711V17.7715C53.8711 17.9857 53.8984 18.1497 53.9531 18.2637C54.0124 18.3776 54.099 18.4574 54.2129 18.5029C54.3268 18.5439 54.4704 18.5645 54.6436 18.5645C54.7666 18.5645 54.876 18.5599 54.9717 18.5508C55.0719 18.5371 55.1562 18.5234 55.2246 18.5098L55.2314 19.959C55.0628 20.0137 54.8805 20.057 54.6846 20.0889C54.4886 20.1208 54.2721 20.1367 54.0352 20.1367C53.6022 20.1367 53.224 20.0661 52.9004 19.9248C52.5814 19.779 52.3353 19.5465 52.1621 19.2275C51.9889 18.9085 51.9023 18.4893 51.9023 17.9697V10.7783ZM63.0109 20H61.0354V12.2686C61.0354 11.6396 61.163 11.1087 61.4182 10.6758C61.6779 10.2428 62.0471 9.91471 62.5256 9.69141C63.0087 9.4681 63.592 9.35645 64.2756 9.35645C64.663 9.35645 65.0389 9.39518 65.4035 9.47266C65.7681 9.54557 66.1441 9.64128 66.5314 9.75977L66.2443 11.3389C65.9937 11.2614 65.7248 11.1885 65.4377 11.1201C65.1506 11.0518 64.8042 11.0176 64.3986 11.0176C63.9429 11.0176 63.5965 11.1247 63.3596 11.3389C63.1271 11.5485 63.0109 11.8584 63.0109 12.2686V20ZM64.4807 12.6035V13.998H59.9348V12.6035H64.4807ZM67.4475 12.6035V20H65.4719V12.6035H67.4475ZM71.573 9.5V20H69.5975V9.5H71.573ZM77.0043 20.1367C76.4301 20.1367 75.9151 20.0456 75.4594 19.8633C75.0036 19.6764 74.6163 19.4189 74.2973 19.0908C73.9828 18.7627 73.7413 18.3822 73.5727 17.9492C73.404 17.5117 73.3197 17.0469 73.3197 16.5547V16.2812C73.3197 15.7207 73.3995 15.208 73.559 14.7432C73.7185 14.2783 73.9464 13.875 74.2426 13.5332C74.5434 13.1914 74.9079 12.9294 75.3363 12.7471C75.7647 12.5602 76.2478 12.4668 76.7855 12.4668C77.3096 12.4668 77.7745 12.5534 78.1801 12.7266C78.5857 12.8997 78.9252 13.1458 79.1986 13.4648C79.4766 13.7839 79.6863 14.1667 79.8275 14.6133C79.9688 15.0553 80.0395 15.5475 80.0395 16.0898V16.9102H74.1605V15.5977H78.1049V15.4473C78.1049 15.1738 78.0548 14.93 77.9545 14.7158C77.8588 14.4971 77.713 14.3239 77.517 14.1963C77.321 14.0687 77.0704 14.0049 76.765 14.0049C76.5053 14.0049 76.282 14.0618 76.0951 14.1758C75.9083 14.2897 75.7556 14.4492 75.6371 14.6543C75.5232 14.8594 75.4366 15.1009 75.3773 15.3789C75.3227 15.6523 75.2953 15.9531 75.2953 16.2812V16.5547C75.2953 16.8509 75.3363 17.1243 75.4184 17.375C75.5049 17.6257 75.6257 17.8421 75.7807 18.0244C75.9402 18.2067 76.1316 18.348 76.3549 18.4482C76.5827 18.5485 76.8402 18.5986 77.1273 18.5986C77.4828 18.5986 77.8132 18.5303 78.1186 18.3936C78.4284 18.2523 78.6951 18.0404 78.9184 17.7578L79.8754 18.7969C79.7204 19.0202 79.5085 19.2344 79.2396 19.4395C78.9753 19.6445 78.6563 19.8132 78.2826 19.9453C77.9089 20.0729 77.4828 20.1367 77.0043 20.1367Z" fill="white"/>
</svg>
