<svg width="21" height="20" viewBox="0 0 21 20" fill="none" xmlns="http://www.w3.org/2000/svg">
<symbol  viewBox="0 0 21 20" id="share">
<g clip-path="url(#clip0_45_506)">
<path d="M3.44139 13.4132C1.60423 13.4132 0.142853 11.9518 0.142853 10.1146C0.142853 8.27746 1.60423 6.81607 3.44139 6.81607C5.27856 6.81607 6.73995 8.27746 6.73995 10.1146C6.73995 11.91 5.27856 13.4132 3.44139 13.4132ZM3.44139 8.02694C2.31405 8.02694 1.39547 8.94552 1.39547 10.0729C1.39547 11.2002 2.31405 12.1188 3.44139 12.1188C4.56874 12.1188 5.48734 11.2002 5.48734 10.0729C5.48734 8.98727 4.56874 8.02694 3.44139 8.02694Z" />
<path d="M16.8443 6.69082C15.0072 6.69082 13.5458 5.22945 13.5458 3.39229C13.5458 1.55513 15.0072 0.09375 16.8443 0.09375C18.6815 0.09375 20.1429 1.55513 20.1429 3.39229C20.1429 5.22945 18.6397 6.69082 16.8443 6.69082ZM16.8443 1.34636C15.717 1.34636 14.7984 2.26494 14.7984 3.39229C14.7984 4.51964 15.717 5.43821 16.8443 5.43821C17.9717 5.43821 18.8903 4.51964 18.8903 3.39229C18.8903 2.26494 17.9717 1.34636 16.8443 1.34636Z"/>
<path d="M16.8443 20.0937C15.0072 20.0937 13.5458 18.6324 13.5458 16.7952C13.5458 14.958 15.0072 13.4966 16.8443 13.4966C18.6815 13.4966 20.1429 14.958 20.1429 16.7952C20.1429 18.6324 18.6397 20.0937 16.8443 20.0937ZM16.8443 14.7493C15.717 14.7493 14.7984 15.6678 14.7984 16.7952C14.7984 17.9225 15.717 18.8411 16.8443 18.8411C17.9717 18.8411 18.8903 17.9225 18.8903 16.7952C18.8903 15.6678 17.9717 14.7493 16.8443 14.7493Z"/>
<path d="M14.1303 16.2106L5.52907 11.91L6.11363 10.6992L14.7566 14.9998L14.1303 16.2106Z" />
<path d="M6.11363 9.48832L5.52907 8.31921L14.1303 4.01859L14.7566 5.18767L6.11363 9.48832Z"/>
</g>
<defs>
<clipPath id="clip0_45_506">
<rect width="20" height="20" transform="translate(0.142853)"/>
</clipPath>
</defs>
</symbol>
</svg>
