<svg width="18" height="19" viewBox="0 0 18 19" fill="none" xmlns="http://www.w3.org/2000/svg">
<path d="M9.00003 13.591C11.2594 13.591 13.0909 11.7594 13.0909 9.50009C13.0909 7.24074 11.2594 5.40918 9.00003 5.40918C6.74068 5.40918 4.90912 7.24074 4.90912 9.50009C4.90912 11.7594 6.74068 13.591 9.00003 13.591Z" fill="#F8BB15"/>
<path d="M9.00007 3.5C9.21706 3.49999 9.42516 3.41379 9.5786 3.26035C9.73203 3.10691 9.81824 2.89881 9.81825 2.68182V1.31818C9.81825 1.10119 9.73205 0.893079 9.57861 0.73964C9.42517 0.586201 9.21706 0.5 9.00007 0.5C8.78307 0.5 8.57496 0.586201 8.42152 0.73964C8.26809 0.893079 8.18188 1.10119 8.18188 1.31818V2.68182C8.1819 2.89881 8.2681 3.10691 8.42154 3.26035C8.57497 3.41378 8.78307 3.49999 9.00007 3.5Z" fill="#F8BB15"/>
<path d="M3.6003 5.25719C3.67627 5.33316 3.76646 5.39342 3.86572 5.43453C3.96498 5.47565 4.07136 5.49681 4.1788 5.49681C4.28623 5.49681 4.39262 5.47565 4.49188 5.43453C4.59113 5.39342 4.68132 5.33316 4.75729 5.25719C4.83326 5.18122 4.89352 5.09103 4.93463 4.99177C4.97575 4.89251 4.99691 4.78613 4.99691 4.67869C4.99691 4.57126 4.97575 4.46487 4.93463 4.36562C4.89352 4.26636 4.83326 4.17617 4.75729 4.1002L3.79313 3.13609C3.6397 2.98267 3.43161 2.89648 3.21464 2.89648C2.99766 2.89649 2.78958 2.98268 2.63615 3.13611C2.48273 3.28953 2.39654 3.49762 2.39655 3.7146C2.39655 3.93157 2.48274 4.13966 2.63617 4.29308L3.6003 5.25719Z" fill="#F8BB15"/>
<path d="M3 9.49982C2.99999 9.28283 2.91378 9.07473 2.76035 8.92129C2.60691 8.76786 2.39881 8.68165 2.18182 8.68164H0.818182C0.601187 8.68164 0.393079 8.76784 0.23964 8.92128C0.086201 9.07472 0 9.28283 0 9.49982C0 9.71682 0.086201 9.92493 0.23964 10.0784C0.393079 10.2318 0.601187 10.318 0.818182 10.318H2.18182C2.39881 10.318 2.60691 10.2318 2.76035 10.0784C2.91379 9.92492 2.99999 9.71681 3 9.49982Z" fill="#F8BB15"/>
<path d="M3.60036 13.7425L2.63623 14.7069C2.56026 14.7829 2.5 14.8731 2.45888 14.9724C2.41777 15.0716 2.39661 15.178 2.39661 15.2854C2.39661 15.3929 2.41777 15.4993 2.45888 15.5985C2.5 15.6978 2.56026 15.788 2.63623 15.8639C2.78965 16.0174 2.99774 16.1035 3.21472 16.1035C3.32216 16.1035 3.42854 16.0824 3.5278 16.0413C3.62706 16.0002 3.71724 15.9399 3.79321 15.8639L4.75735 14.8995C4.83332 14.8236 4.89358 14.7334 4.93469 14.6341C4.97581 14.5349 4.99697 14.4285 4.99697 14.321C4.99697 14.2136 4.97581 14.1072 4.9347 14.008C4.89359 13.9087 4.83333 13.8185 4.75736 13.7426C4.6814 13.6666 4.59121 13.6063 4.49195 13.5652C4.3927 13.5241 4.28631 13.5029 4.17888 13.5029C4.07144 13.5029 3.96506 13.5241 3.8658 13.5652C3.76655 13.6063 3.67636 13.6666 3.60039 13.7425H3.60036Z" fill="#F8BB15"/>
<path d="M9.00007 15.5C8.78308 15.5 8.57497 15.5862 8.42154 15.7397C8.2681 15.8931 8.1819 16.1012 8.18188 16.3182V17.6818C8.18188 17.8988 8.26809 18.1069 8.42152 18.2604C8.57496 18.4138 8.78307 18.5 9.00007 18.5C9.21706 18.5 9.42517 18.4138 9.57861 18.2604C9.73205 18.1069 9.81825 17.8988 9.81825 17.6818V16.3182C9.81824 16.1012 9.73203 15.8931 9.5786 15.7397C9.42516 15.5862 9.21706 15.5 9.00007 15.5V15.5Z" fill="#F8BB15"/>
<path d="M14.3997 13.7425C14.3237 13.6666 14.2335 13.6063 14.1342 13.5652C14.035 13.5241 13.9286 13.5029 13.8212 13.5029C13.7137 13.5029 13.6073 13.5241 13.5081 13.5652C13.4088 13.6063 13.3186 13.6666 13.2427 13.7425C13.1667 13.8185 13.1064 13.9087 13.0653 14.008C13.0242 14.1072 13.0031 14.2136 13.0031 14.321C13.0031 14.4285 13.0242 14.5349 13.0653 14.6341C13.1064 14.7334 13.1667 14.8236 13.2427 14.8995L14.2068 15.8639C14.2828 15.9399 14.373 16.0002 14.4722 16.0413C14.5715 16.0824 14.6779 16.1036 14.7853 16.1036C14.8927 16.1036 14.9991 16.0824 15.0984 16.0413C15.1976 16.0002 15.2878 15.9399 15.3638 15.8639C15.4398 15.788 15.5 15.6978 15.5411 15.5985C15.5823 15.4993 15.6034 15.3929 15.6034 15.2854C15.6034 15.178 15.5823 15.0716 15.5411 14.9724C15.5 14.8731 15.4398 14.7829 15.3638 14.707L14.3997 13.7425Z" fill="#F8BB15"/>
<path d="M18 9.49982C18 9.28283 17.9138 9.07473 17.7603 8.92129C17.6069 8.76786 17.3988 8.68165 17.1818 8.68164H15.8182C15.6012 8.68164 15.3931 8.76784 15.2396 8.92128C15.0862 9.07472 15 9.28283 15 9.49982C15 9.71682 15.0862 9.92493 15.2396 10.0784C15.3931 10.2318 15.6012 10.318 15.8182 10.318H17.1818C17.3988 10.318 17.6069 10.2318 17.7603 10.0784C17.9138 9.92492 18 9.71681 18 9.49982Z" fill="#F8BB15"/>
<path d="M13.8212 5.49693C13.9286 5.49706 14.0351 5.47595 14.1343 5.43481C14.2336 5.39367 14.3238 5.33332 14.3997 5.25722L15.3638 4.29309C15.5172 4.13967 15.6034 3.93157 15.6034 3.7146C15.6034 3.49762 15.5172 3.28953 15.3638 3.1361C15.2104 2.98268 15.0023 2.89648 14.7853 2.89648C14.5683 2.89648 14.3602 2.98268 14.2068 3.1361L13.2427 4.10026C13.1283 4.21469 13.0504 4.36046 13.0188 4.51916C12.9873 4.67786 13.0035 4.84235 13.0654 4.99184C13.1273 5.14133 13.2322 5.2691 13.3667 5.359C13.5012 5.44891 13.6594 5.4969 13.8212 5.49693H13.8212Z" fill="#F8BB15"/>
</svg>
