<svg width="24" height="24" viewBox="0 0 24 24" fill="none" xmlns="http://www.w3.org/2000/svg">
<g clip-path="url(#clip0_40_520)">
<path d="M12 24C18.6274 24 24 18.6274 24 12C24 5.3726 18.6274 0 12 0C5.3726 0 0 5.3726 0 12C0 18.6274 5.3726 24 12 24Z" fill="url(#paint0_linear_40_520)"/>
<path d="M4.46913 12.587C5.87192 11.8143 7.43782 11.1694 8.90092 10.5212C11.418 9.4595 13.9451 8.4162 16.4977 7.4449C16.9944 7.2794 17.8867 7.11755 17.9742 7.85355C17.9263 8.89535 17.7292 9.93105 17.594 10.9668C17.2509 13.2443 16.8543 15.5142 16.4675 17.7843C16.3343 18.5404 15.387 18.9319 14.7809 18.448C13.3243 17.4641 11.8565 16.4898 10.4185 15.4831C9.94747 15.0044 10.3843 14.3171 10.805 13.9753C12.0047 12.793 13.277 11.7884 14.414 10.545C14.7207 9.8044 13.8145 10.4286 13.5156 10.6199C11.8732 11.7517 10.271 12.9526 8.53937 13.9473C7.65487 14.4342 6.62397 14.0181 5.73987 13.7464C4.94716 13.4182 3.78555 13.0875 4.46905 12.5871L4.46913 12.587Z" fill="white"/>
</g>
<defs>
<linearGradient id="paint0_linear_40_520" x1="9.0014" y1="1.0008" x2="3.0014" y2="15" gradientUnits="userSpaceOnUse">
<stop stop-color="#37AEE2"/>
<stop offset="1" stop-color="#1E96C8"/>
</linearGradient>
<clipPath id="clip0_40_520">
<rect width="24" height="24" fill="white"/>
</clipPath>
</defs>
</svg>
