<svg width="18" height="18" viewBox="0 0 18 18" fill="none" xmlns="http://www.w3.org/2000/svg">
<symbol viewBox="0 0 18 18"  id="Vflip">
<path d="M4.85381 14.625H13.1462C13.4038 14.625 13.5259 14.3072 13.3341 14.1345L9.18788 10.4029C9.081 10.3067 8.91844 10.3067 8.81156 10.4029L4.66538 14.1345C4.47356 14.3072 4.59563 14.625 4.85381 14.625Z"/>
<path d="M11.0942 4.44375L9 6.32869L6.90582 4.44375L11.0942 4.44375ZM13.4286 3.6585C13.4286 3.5145 13.3172 3.375 13.1462 3.375L4.85325 3.375C4.68282 3.375 4.57144 3.5145 4.57144 3.6585C4.57144 3.73219 4.60069 3.807 4.66538 3.8655L8.81157 7.59712C8.91844 7.69331 9.081 7.69331 9.18788 7.59712L13.3346 3.8655C13.3993 3.807 13.4286 3.73219 13.4286 3.6585Z"/>
<path d="M15.1875 9.5C15.4636 9.5 15.6875 9.27614 15.6875 9C15.6875 8.72386 15.4636 8.5 15.1875 8.5V9.5ZM2.8125 9.5L15.1875 9.5V8.5L2.8125 8.5V9.5Z"/>
</symbol>
</svg>
